<svg width="20" height="24" viewBox="0 0 20 24" fill="none" xmlns="http://www.w3.org/2000/svg">
<path d="M14.293 0.292954C14.6835 -0.0975701 15.3165 -0.0975701 15.707 0.292954L19.707 4.29295C20.0976 4.68348 20.0976 5.31649 19.707 5.70702L15.707 9.70702C15.3165 10.0975 14.6835 10.0975 14.293 9.70702C13.9024 9.31649 13.9024 8.68348 14.293 8.29295L17.5859 4.99999L14.293 1.70702C13.9024 1.31649 13.9024 0.683479 14.293 0.292954Z" fill="#030D15"/>
<path d="M0 11V9C0 7.67392 0.527162 6.40253 1.46484 5.46484C2.40253 4.52716 3.67392 4 5 4H19C19.5523 4 20 4.44772 20 5C20 5.55228 19.5523 6 19 6H5C4.20435 6 3.44152 6.3163 2.87891 6.87891C2.3163 7.44152 2 8.20435 2 9V11C2 11.5523 1.55228 12 1 12C0.447715 12 0 11.5523 0 11Z" fill="#030D15"/>
<path d="M4.29295 14.293C4.68348 13.9024 5.31649 13.9024 5.70702 14.293C6.09754 14.6835 6.09754 15.3165 5.70702 15.707L2.41405 19L5.70702 22.293C6.09754 22.6835 6.09754 23.3165 5.70702 23.707C5.31649 24.0975 4.68348 24.0975 4.29295 23.707L0.292954 19.707C-0.0975701 19.3165 -0.09757 18.6835 0.292954 18.293L4.29295 14.293Z" fill="#030D15"/>
<path d="M18 15V13C18 12.4477 18.4477 12 19 12C19.5523 12 20 12.4477 20 13V15C20 16.3261 19.4728 17.5975 18.5352 18.5352C17.5975 19.4728 16.3261 20 15 20H1C0.447715 20 0 19.5523 0 19C0 18.4477 0.447715 18 1 18H15C15.7956 18 16.5585 17.6837 17.1211 17.1211C17.6837 16.5585 18 15.7956 18 15Z" fill="#030D15"/>
</svg>
