<svg width="38" height="38" viewBox="0 0 38 38" fill="none" xmlns="http://www.w3.org/2000/svg">
<circle cx="19" cy="19" r="19" fill="white"/>
<path d="M16.3182 27.2728C16.7198 27.2728 17.0455 26.9472 17.0455 26.5455C17.0455 26.1438 16.7198 25.8182 16.3182 25.8182C15.9165 25.8182 15.5909 26.1438 15.5909 26.5455C15.5909 26.9472 15.9165 27.2728 16.3182 27.2728Z" stroke="black" stroke-width="1.5" stroke-linecap="round" stroke-linejoin="round"/>
<path d="M24.3182 27.2728C24.7198 27.2728 25.0455 26.9472 25.0455 26.5455C25.0455 26.1438 24.7198 25.8182 24.3182 25.8182C23.9165 25.8182 23.5909 26.1438 23.5909 26.5455C23.5909 26.9472 23.9165 27.2728 24.3182 27.2728Z" stroke="black" stroke-width="1.5" stroke-linecap="round" stroke-linejoin="round"/>
<path d="M10.5 12H13.4091L15.3582 21.7382C15.4247 22.073 15.6068 22.3738 15.8728 22.5879C16.1387 22.8019 16.4714 22.9156 16.8127 22.9091H23.8818C24.2231 22.9156 24.5559 22.8019 24.8218 22.5879C25.0877 22.3738 25.2699 22.073 25.3364 21.7382L26.5 15.6364H14.1364" stroke="black" stroke-width="1.5" stroke-linecap="round" stroke-linejoin="round"/>
</svg>
