<svg width="23" height="20" viewBox="0 0 23 20" fill="none" xmlns="http://www.w3.org/2000/svg">
<path d="M6.80869 17.5251C6.80569 17.5265 6.80328 17.5276 6.80185 17.5291C6.80042 17.5305 6.79928 17.5329 6.79794 17.5359C6.79635 17.5397 6.79501 17.5439 6.79501 17.5457L6.79794 17.5544C6.79925 17.5575 6.80042 17.5598 6.80185 17.5613C6.80331 17.5627 6.80559 17.5648 6.80869 17.5662C6.81245 17.5678 6.8167 17.5681 6.81845 17.5681C6.82027 17.5681 6.82368 17.5677 6.82724 17.5662C6.8305 17.5648 6.83256 17.5628 6.83408 17.5613C6.83559 17.5598 6.83758 17.5577 6.83896 17.5544L6.84091 17.5457L6.83896 17.5359C6.83761 17.5328 6.83554 17.5305 6.83408 17.5291C6.83259 17.5276 6.83028 17.5264 6.82724 17.5251L6.81845 17.5222C6.8167 17.5222 6.81245 17.5236 6.80869 17.5251ZM8.29501 17.5457C8.29487 18.3613 7.63411 19.0221 6.81845 19.0222C6.05344 19.0222 5.42421 18.4411 5.34872 17.696L5.34091 17.5457L5.34872 17.3943C5.42441 16.6494 6.05359 16.0681 6.81845 16.0681L6.96884 16.0759C7.71394 16.1514 8.29501 16.7806 8.29501 17.5457Z" fill="#030D15"/>
<path d="M14.8087 17.5251C14.8057 17.5265 14.8033 17.5276 14.8018 17.5291C14.8004 17.5305 14.7993 17.5329 14.7979 17.5359C14.7964 17.5397 14.795 17.5439 14.795 17.5457L14.7979 17.5544C14.7992 17.5575 14.8004 17.5598 14.8018 17.5613C14.8033 17.5627 14.8056 17.5648 14.8087 17.5662C14.8124 17.5678 14.8167 17.5681 14.8185 17.5681C14.8203 17.5681 14.8237 17.5677 14.8272 17.5662C14.8305 17.5648 14.8326 17.5628 14.8341 17.5613C14.8356 17.5598 14.8376 17.5577 14.839 17.5544L14.8409 17.5457L14.839 17.5359C14.8376 17.5328 14.8355 17.5305 14.8341 17.5291C14.8326 17.5276 14.8303 17.5264 14.8272 17.5251L14.8185 17.5222C14.8167 17.5222 14.8124 17.5236 14.8087 17.5251ZM16.295 17.5457C16.2949 18.3613 15.6341 19.0221 14.8185 19.0222C14.0534 19.0222 13.4242 18.4411 13.3487 17.696L13.3409 17.5457L13.3487 17.3943C13.4244 16.6494 14.0536 16.0681 14.8185 16.0681L14.9688 16.0759C15.7139 16.1514 16.295 16.7806 16.295 17.5457Z" fill="#030D15"/>
<path d="M3.90918 2.25L4.04004 2.26172C4.33947 2.31466 4.58304 2.54584 4.64453 2.85254L5.25195 5.88672H17C17.2235 5.88672 17.4356 5.98598 17.5781 6.1582C17.7206 6.33041 17.7782 6.55781 17.7363 6.77734L16.5732 12.8789L16.5723 12.8848L16.5264 13.0723C16.4005 13.5039 16.1446 13.888 15.792 14.1719C15.3927 14.4933 14.8941 14.6647 14.3818 14.6582V14.6592H7.3125V14.6582C6.80031 14.6646 6.30159 14.4933 5.90234 14.1719C5.4995 13.8475 5.22291 13.392 5.12207 12.8848V12.8838L3.90332 6.7959C3.90137 6.78687 3.90006 6.7777 3.89844 6.76855L3.29395 3.75H1C0.585786 3.75 0.25 3.41421 0.25 3C0.25 2.58579 0.585786 2.25 1 2.25H3.90918ZM6.59375 12.5908V12.5918L6.62793 12.71C6.67235 12.8243 6.7461 12.9261 6.84277 13.0039C6.97158 13.1076 7.13351 13.1623 7.29883 13.1592H14.3965C14.5617 13.1623 14.7228 13.1075 14.8516 13.0039C14.9804 12.9002 15.0684 12.754 15.1006 12.5918L16.0938 7.38672H5.55176L6.59375 12.5908Z" fill="#030D15"/>
<path d="M23 6C23 9.31371 20.3137 12 17 12C13.6863 12 11 9.31371 11 6C11 2.68629 13.6863 0 17 0C20.3137 0 23 2.68629 23 6Z" fill="#C72535"/>
<path d="M19.15 7.19989C19.15 7.73323 18.9633 8.17656 18.59 8.52989C18.2167 8.88323 17.69 9.05989 17.01 9.05989C16.3833 9.05989 15.84 8.94989 15.38 8.72989V7.93989C15.8733 8.19989 16.41 8.32989 16.99 8.32989C17.4167 8.32989 17.7467 8.21989 17.98 7.99989C18.22 7.77989 18.34 7.49323 18.34 7.13989C18.34 6.78656 18.2067 6.51656 17.94 6.32989C17.68 6.13656 17.3033 6.03989 16.81 6.03989H16.39V5.34989H16.81C17.1833 5.34989 17.4967 5.24656 17.75 5.03989C18.01 4.82656 18.14 4.54323 18.14 4.18989C18.14 3.83656 18.03 3.56989 17.81 3.38989C17.59 3.20989 17.2867 3.11989 16.9 3.11989C16.44 3.11989 16 3.25656 15.58 3.52989V2.75989C15.9667 2.51323 16.4133 2.38989 16.92 2.38989C17.5667 2.38989 18.0667 2.55656 18.42 2.88989C18.78 3.21656 18.96 3.62323 18.96 4.10989C18.96 4.46323 18.87 4.77989 18.69 5.05989C18.5167 5.33989 18.2567 5.54989 17.91 5.68989C18.29 5.77656 18.59 5.95323 18.81 6.21989C19.0367 6.47989 19.15 6.80656 19.15 7.19989Z" fill="white"/>
</svg>
