<svg width="24" height="22" viewBox="0 0 24 22" fill="none" xmlns="http://www.w3.org/2000/svg">
<path d="M5 0C5.47661 0 5.88691 0.336378 5.98047 0.803711L6.82031 5H23C23.298 5 23.5805 5.13276 23.7705 5.3623C23.9605 5.59193 24.0382 5.89475 23.9824 6.1875L22.3818 14.5771L22.3809 14.585L21.4668 14.4023L21.3994 14.3896L22.3809 14.585C22.2437 15.2755 21.8677 15.8954 21.3193 16.3369C20.776 16.7743 20.0975 17.0078 19.4004 16.999L9.67969 17C8.98256 17.0088 8.30414 16.7744 7.76074 16.3369C7.21258 15.8956 6.83656 15.2761 6.69922 14.5859L5.02344 6.21289C5.0214 6.20348 5.01935 6.19407 5.01758 6.18457L4.18066 2H1C0.447715 2 0 1.55228 0 1C0 0.447715 0.447715 0 1 0H5ZM8.66016 14.1934L8.66113 14.1953C8.70688 14.4254 8.83188 14.6322 9.01465 14.7793C9.19747 14.9265 9.42648 15.0045 9.66113 15H19.4189C19.6536 15.0045 19.8826 14.9265 20.0654 14.7793C20.2254 14.6505 20.3414 14.4761 20.3984 14.2803L20.4189 14.1953L21.791 7H7.2207L8.66016 14.1934Z" fill="#030D15"/>
<path d="M7 20C7 18.8954 7.89543 18 9 18C10.1046 18 11 18.8954 11 20C11 21.1046 10.1046 22 9 22C7.89543 22 7 21.1046 7 20Z" fill="#030D15"/>
<path d="M18 20C18 18.8954 18.8954 18 20 18C21.1046 18 22 18.8954 22 20C22 21.1046 21.1046 22 20 22C18.8954 22 18 21.1046 18 20Z" fill="#030D15"/>
</svg>
