<svg width="18" height="18" viewBox="0 0 18 18" fill="none" xmlns="http://www.w3.org/2000/svg">
<path d="M18 9C18 13.9706 13.9706 18 9 18C4.02944 18 0 13.9706 0 9C0 4.02944 4.02944 0 9 0C13.9706 0 18 4.02944 18 9Z" fill="#247CC0"/>
<path d="M7.82217 12.6226C7.72816 12.7183 7.5999 12.773 7.46573 12.773C7.33162 12.7729 7.20326 12.7183 7.10928 12.6226L7.46573 12.273L7.82217 12.6226ZM12.7343 6.19487C12.9278 5.99802 13.2444 5.99557 13.4413 6.18901C13.6382 6.38252 13.6406 6.69908 13.4472 6.89604L7.82217 12.6226L7.46573 12.272L7.10928 12.6226L4.55264 10.0201C4.35924 9.82314 4.36177 9.50655 4.5585 9.31303C4.75544 9.11961 5.07202 9.1221 5.26553 9.31889L7.46573 11.5591L12.7343 6.19487Z" fill="white"/>
</svg>
