<svg width="10" height="17" viewBox="0 0 10 17" fill="none" xmlns="http://www.w3.org/2000/svg">
<path d="M5.75 4.75C5.75 4.41848 5.88179 4.10063 6.11621 3.86621C6.35063 3.63179 6.66848 3.5 7 3.5H8.75V1.5H7C6.13805 1.5 5.31164 1.84266 4.70215 2.45215C4.09266 3.06164 3.75 3.88805 3.75 4.75V7C3.75 7.27614 3.52614 7.5 3.25 7.5H1.5V9.5H3.25C3.52614 9.5 3.75 9.72386 3.75 10V15.5H5.75V10C5.75 9.72386 5.97386 9.5 6.25 9.5H8.10938L8.60938 7.5H6.25C5.97386 7.5 5.75 7.27614 5.75 7V4.75ZM6.75 6.5H9.25C9.40397 6.5 9.54978 6.57102 9.64453 6.69238C9.73908 6.81364 9.77258 6.9719 9.73535 7.12109L8.98535 10.1211C8.92971 10.3437 8.72943 10.5 8.5 10.5H6.75V16C6.75 16.2761 6.52614 16.5 6.25 16.5H3.25C2.97386 16.5 2.75 16.2761 2.75 16V10.5H1C0.723858 10.5 0.5 10.2761 0.5 10V7C0.5 6.72386 0.723858 6.5 1 6.5H2.75V4.75C2.75 3.62283 3.19809 2.54215 3.99512 1.74512C4.79215 0.948088 5.87283 0.5 7 0.5H9.25C9.52614 0.5 9.75 0.723858 9.75 1V4C9.75 4.27614 9.52614 4.5 9.25 4.5H7C6.9337 4.5 6.87013 4.52636 6.82324 4.57324C6.77636 4.62013 6.75 4.6837 6.75 4.75V6.5Z" fill="white"/>
</svg>
