<svg width="23" height="21" viewBox="0 0 23 21" fill="none" xmlns="http://www.w3.org/2000/svg">
<path d="M20.9033 6.50195C20.9033 5.91086 20.7868 5.32537 20.5605 4.7793C20.3343 4.23319 20.0021 3.73723 19.584 3.31934C19.1662 2.90139 18.67 2.56901 18.124 2.34277C17.5779 2.1165 16.9925 2.00001 16.4014 2C15.8102 2 15.2248 2.1165 14.6787 2.34277C14.1327 2.569 13.6366 2.90042 13.2188 3.31836L12.1582 4.37891C11.7677 4.76935 11.1346 4.7694 10.7441 4.37891L9.68457 3.31934C8.84041 2.47518 7.69479 2.00098 6.50098 2.00098C5.30727 2.00106 4.16244 2.47525 3.31836 3.31934C2.47434 4.16347 2 5.30824 2 6.50195C2.00003 7.69568 2.47429 8.84045 3.31836 9.68457L11.4512 17.8174L19.584 9.68457L19.7373 9.52441C20.0839 9.14206 20.3626 8.70239 20.5605 8.22461C20.7868 7.67854 20.9033 7.09303 20.9033 6.50195ZM22.9033 6.50195C22.9033 7.35576 22.735 8.20146 22.4082 8.99023C22.1222 9.68032 21.7194 10.3149 21.2188 10.8672L20.998 11.0986L12.1582 19.9385C11.7677 20.329 11.1347 20.329 10.7441 19.9385L1.9043 11.0986C0.685157 9.87944 3.38418e-05 8.22611 0 6.50195C0 4.7777 0.685068 3.12353 1.9043 1.9043C3.12343 0.68531 4.77697 0.00105978 6.50098 0.000976562C8.22518 0.000976562 9.87941 0.685127 11.0986 1.9043L11.4512 2.25684L11.8037 1.9043C12.4073 1.30048 13.1244 0.821938 13.9131 0.495117C14.7019 0.168271 15.5475 0 16.4014 0C17.2552 9.89562e-06 18.1009 0.168281 18.8896 0.495117C19.6781 0.821862 20.3946 1.3007 20.998 1.9043L21.2188 2.13574C21.7196 2.68814 22.1222 3.32336 22.4082 4.01367C22.735 4.80247 22.9033 5.64812 22.9033 6.50195Z" fill="#030D15"/>
</svg>
