<?xml version="1.0" standalone="no"?>
<!DOCTYPE svg PUBLIC "-//W3C//DTD SVG 1.1//EN" "http://www.w3.org/Graphics/SVG/1.1/DTD/svg11.dtd" >
<svg xmlns="http://www.w3.org/2000/svg">
<metadata>Generated by IcoMoon</metadata>
<defs>
<font id="icons" horiz-adv-x="1024">
<font-face units-per-em="1024" ascent="960" descent="-64" />
<missing-glyph horiz-adv-x="1024" />
<glyph unicode="&#x20;" horiz-adv-x="512" d="" />
<glyph unicode="&#xe900;" glyph-name="link" horiz-adv-x="1088" d="M969.018 320c0 67.896-26.995 132.991-75.002 181-48.013 48.010-113.107 75-180.998 75-67.898 0-132.993-26.991-181.002-75s-75-113.104-75-181v-304h128v304c0 33.948 13.495 66.495 37.5 90.5s56.55 37.5 90.502 37.5c33.946 0 66.496-13.496 90.496-37.5 24.006-24.004 37.504-56.552 37.504-90.5v-304h128v304zM1033.018-16c0-17.67-14.33-32-32-32h-192c-17.677 0-32 14.33-32 32v336c0 16.974-6.752 33.247-18.752 45.25s-28.275 18.75-45.248 18.75c-16.973 0-33.248-6.748-45.254-18.75-12-12.003-18.746-28.276-18.746-45.25v-336c0-17.67-14.329-32-32.002-32h-192c-17.673 0-32 14.33-32 32v336c0 84.869 33.738 166.238 93.75 226.25s141.381 93.75 226.252 93.75c84.87 0 166.234-33.738 226.246-93.75s93.754-141.381 93.754-226.25v-336zM233.016 592c17.673 0 32-14.327 32-32v-576c0-17.67-14.327-32-32-32h-192c-17.673 0-32 14.33-32 32v576l0.625 6.438c2.978 14.589 15.905 25.562 31.375 25.562h192zM73.016 16h128v512h-128v-512zM201.016 800c0 35.346-28.654 64-64 64s-64-28.654-64-64c0-35.346 28.653-64 64-64s64 28.654 64 64zM265.016 800c0-70.692-57.308-128-128-128s-128 57.308-128 128c0 70.692 57.308 128 128 128s128-57.308 128-128z" />
<glyph unicode="&#xe901;" glyph-name="language" horiz-adv-x="956" d="M856.003 448c0 228.728-171.138 409.593-376.803 409.6-205.673 0-376.8-180.868-376.8-409.6 0-228.734 171.127-409.6 376.8-409.6 205.665 0.007 376.803 180.873 376.803 409.6zM924.269 448c0-261.4-196.854-477.86-445.069-477.867-248.219 0-445.067 216.467-445.067 477.867 0 261.402 196.848 477.867 445.067 477.867 248.216-0.007 445.069-216.469 445.069-477.867zM890.136 482.133c18.842-0.012 34.133-15.29 34.133-34.133s-15.292-34.121-34.133-34.133h-821.869c-18.851 0-34.133 15.282-34.133 34.133s15.282 34.133 34.133 34.133h821.869zM505.219 913.8c108.031-127.715 169.145-293.047 172.466-465.133 0.009-0.439 0.009-0.895 0-1.334-3.322-172.089-64.435-337.417-172.466-465.13l-5.334-5.134c-5.88-4.478-13.144-6.929-20.666-6.936-10.031 0-19.582 4.417-26.067 12.070l26.067 22.064h-0.067l-26-22.064c-108.032 127.713-169.145 293.041-172.467 465.13-0.008 0.439-0.008 0.895 0 1.334 3.322 172.086 64.435 337.418 172.467 465.133l26-22.067 26.067 22.067zM479.219 836.467c-81.169-110.044-127.391-246.353-130.267-388.467 2.875-142.096 49.118-278.364 130.267-388.403 81.135 110.032 127.258 246.321 130.133 388.403-2.875 142.101-48.979 278.428-130.133 388.467z" />
<glyph unicode="&#xe902;" glyph-name="inst" d="M948.706 673.882c0 108.118-87.648 195.765-195.765 195.765h-451.765c-108.118 0-195.765-87.647-195.765-195.765v-451.765c0-108.116 87.647-195.765 195.765-195.765h451.765c108.116 0 195.765 87.648 195.765 195.765v451.765zM1008.941 222.118c0-141.384-114.616-256-256-256h-451.765c-141.385 0-256 114.616-256 256v451.765c0 141.385 114.615 256 256 256h451.765c141.384 0 256-114.615 256-256v-451.765zM431.897 637.087c39.361 20.423 84.194 27.917 128.058 21.412 44.735-6.638 86.141-27.491 118.12-59.47s52.832-73.382 59.47-118.118c6.505-43.865-0.988-88.698-21.414-128.058-20.426-39.352-52.748-71.246-92.353-91.178-39.602-19.932-84.463-26.865-128.235-19.823-43.781 7.048-84.232 27.702-115.589 59.061-31.355 31.352-52.014 71.806-59.059 115.587-7.040 43.772-0.107 88.633 19.824 128.236 19.933 39.602 51.825 71.929 91.176 92.353zM551.132 598.91c-31.331 4.646-63.356-0.706-91.471-15.294-28.112-14.588-50.937-37.651-65.176-65.941-14.238-28.291-19.149-60.377-14.117-91.647 5.035-31.264 19.784-60.138 42.176-82.531 22.392-22.389 51.266-37.141 82.53-42.177 31.27-5.030 63.356-0.12 91.647 14.119 28.293 14.24 51.351 37.063 65.94 65.176 14.589 28.115 19.944 60.139 15.294 91.47-4.741 31.948-19.631 61.515-42.472 84.353-22.835 22.839-52.403 37.727-84.35 42.471zM775.999 726.588c16.625-0.010 30.118-13.49 30.118-30.118s-13.493-30.107-30.118-30.118h-0.47c-16.631 0-30.118 13.484-30.118 30.118s13.487 30.118 30.118 30.118h0.47z" />
<glyph unicode="&#xe903;" glyph-name="utb" horiz-adv-x="1365" d="M662.549 925.867c2.862-0.006 7.092-0.044 12.466-0.067 10.744-0.046 26.186-0.15 45-0.333 37.656-0.368 88.911-1.060 143.203-2.533 54.238-1.472 111.766-3.726 161.929-7.067 49.275-3.281 94.112-7.741 121.405-14.4l-8.206-33.4 0.137 0.2 8.069 33.2c0.389-0.096 0.806-0.223 1.195-0.333 32.072-9.074 61.194-26.475 84.405-50.4 23.204-23.923 39.704-53.535 47.8-85.866l-33.137-8.266 33.601 6c18.070-100.178 26.883-201.809 26.269-303.6l-0.335-37.6c-1.686-87.795-10.349-175.34-25.935-261.799-0.137-0.737-0.287-1.475-0.464-2.198-8.096-32.338-24.596-62.013-47.8-85.934-23.211-23.921-52.34-41.26-84.405-50.333l-0.464-0.137-11.134-2.662c-27.764-5.939-67.693-10.124-110.797-13.271-50.224-3.659-107.82-6.117-162.072-7.735-54.292-1.611-105.54-2.396-143.196-2.799-18.835-0.198-34.318-0.28-45.068-0.335-5.377-0.020-9.602-0.055-12.466-0.061h-8.8c-2.864 0.007-7.089 0.041-12.467 0.061-10.753 0.055-26.231 0.137-45.066 0.335-37.659 0.403-88.903 1.188-143.2 2.799-54.252 1.618-111.844 4.076-162.066 7.735-43.109 3.147-83.038 7.332-110.8 13.271l-11.134 2.662-0.199 0.068 9 32.864 0.2 0.867-9.2-33.731c-31.417 8.595-60.116 25.156-83.267 48.067-20.254 20.050-35.686 44.373-45.2 71.134l-3.733 11.599-0.733 3.27c-18.090 100.284-26.905 202.028-26.267 303.931-0.478 101.033 8.336 201.902 26.267 301.333l0.467 2.2c8.093 32.334 24.593 62.009 47.8 85.933 23.205 23.917 52.335 41.261 84.4 50.333l0.466 0.133 11.134 2.667c27.762 5.933 67.691 10.122 110.8 13.267 50.222 3.663 107.814 6.121 162.066 7.733 54.297 1.613 105.542 2.397 143.2 2.8 18.835 0.201 34.313 0.283 45.066 0.333 5.377 0.025 9.602 0.060 12.467 0.067h8.8zM653.882 857.6c-2.81-0.006-6.954-0.042-12.266-0.067-10.636-0.050-25.981-0.133-44.667-0.333-37.383-0.4-88.189-1.203-141.933-2.8-53.808-1.599-110.299-3.971-159.134-7.533-49.584-3.617-88.454-8.219-109-13.666-20.421-5.818-38.945-16.959-53.733-32.2-14.63-15.084-25.080-33.731-30.333-54.067-17.047-94.996-25.41-191.353-24.934-287.867l-37.2-0.133 37.2-0.267c-0.609-97.026 7.766-193.894 24.867-289.399 5.797-19.524 16.379-37.328 30.867-51.664 14.751-14.595 33-25.156 53-30.672l18.733-3.932c21.934-3.796 53.188-7.141 90.533-9.865 48.835-3.564 105.326-5.932 159.134-7.537 53.744-1.597 104.55-2.396 141.933-2.799 18.686-0.198 34.031-0.28 44.667-0.335 5.313-0.020 9.456-0.055 12.266-0.061h8.533c2.811 0.007 6.954 0.041 12.267 0.061 10.633 0.055 25.98 0.137 44.664 0.335 37.383 0.403 88.194 1.201 141.933 2.799 53.808 1.604 110.298 3.973 159.136 7.537 49.548 3.611 88.378 8.288 108.933 13.735 20.439 5.809 39.001 16.876 53.801 32.133 14.623 15.073 25.013 33.737 30.263 54.067 16.916 94.276 25.347 189.88 25.006 285.664v0.333l-0.205 36.667c-1.427 84.956-9.783 169.664-24.801 253.334-5.243 20.363-15.619 39.031-30.263 54.133-14.787 15.241-33.321 26.311-53.733 32.134-20.985 4.966-59.774 9.202-108.803 12.467-48.893 3.256-105.438 5.406-159.266 6.866-53.774 1.459-104.605 2.235-142.001 2.6-18.685 0.182-34.024 0.221-44.664 0.266-5.31 0.023-9.456 0.061-12.267 0.067h-8.533zM77.949 458.667l-34.2 0.2 34.133 0.2 0.067-0.4zM515.35 671.065c10.499 6.091 23.446 6.134 34 0.133l321.132-182.6c10.67-6.068 17.271-17.459 17.271-29.734-0.014-12.262-6.608-23.604-17.271-29.667l-321.132-182.599c-10.555-6.001-23.5-5.96-34 0.13-10.506 6.117-17 17.381-17 29.539v365.264c0 12.156 6.494 23.422 17 29.534zM566.617 334.999l217.87 123.933-217.87 123.933v-247.867z" />
<glyph unicode="&#xe904;" glyph-name="twit" horiz-adv-x="1265" d="M763.591 913.066c48.935 18.674 102.424 21.89 153.233 9.176 44.237-11.071 84.558-33.768 116.941-65.529 46.935 15.967 91.377 38.563 131.945 67.176l17.294-24.588 29.353-7.176c-17.173-70.506-52.387-135.23-102.002-187.941 1.319-10.418 2.084-20.901 2.12-31.412v0-0.118c-0.006-300.052-144.089-518.289-349.533-627.646-198.327-105.562-451-108.183-680.175 10.409l-22.117 11.884-4.235 2.879c-9.245 7.451-13.399 19.793-10.118 31.533 3.764 13.42 16.249 22.546 30.176 21.998 100.955-4.012 200.696 19.673 288.765 67.825-90.263 48.833-152.281 108.996-193.412 173.941-48.245 76.18-66.612 157.071-69.941 230.295-3.323 73.088 8.287 139.138 20.588 186.706 6.169 23.854 12.517 43.283 17.412 56.823 2.446 6.766 4.562 12.069 6.058 15.765 0.749 1.849 1.332 3.336 1.765 4.353 0.213 0.5 0.404 0.887 0.529 1.176l0.235 0.47v0.059h0.059c0.404 0.908 0.795 1.831 1.294 2.706l26.117-14.882 24.706 17.294c48.017-68.374 112.194-123.847 186.823-161.412 65.879-33.159 138.107-51.412 211.588-53.765v20.118c-0.613 52.23 14.775 103.425 44.115 146.647 29.425 43.333 71.481 76.558 120.416 95.235zM629.941 590.712c-93.446-2.419-186.030 18.325-269.528 60.353-66.555 33.5-125.654 79.713-174.118 135.824-1.778-6.048-3.733-12.525-5.529-19.47-11.3-43.692-21.732-103.516-18.765-168.883 2.966-65.246 19.263-135.446 60.706-200.882 41.323-65.233 108.83-127.619 217.294-175.825 9.988-4.439 16.788-13.938 17.765-24.823 0.972-10.878-4.027-21.444-13.059-27.588l-20.706-13.469c-69.68-43.333-147.036-72.114-227.412-85.058 187.612-69.385 382.354-55.585 538.059 27.293 184.748 98.346 317.56 295.472 317.591 574.412l-0.885 18.176c-0.584 6.048-1.446 12.085-2.59 18.059-1.879 9.861 1.271 20.004 8.415 27.059l17.119 18.118c20.341 23.061 37.406 48.672 51.176 76-29.485-14.737-60.157-27.112-91.823-36.647-9.927-2.985-20.582-0.619-28.299 6l-3.114 3.118-10.234 10.882c-24.823 24.479-55.832 41.965-89.823 50.471-38.834 9.712-79.721 7.27-117.122-7-37.406-14.279-69.566-39.753-92.058-72.882-22.474-33.116-34.238-72.335-33.708-112.353v-50.765c0-16.329-13.029-29.694-29.353-30.118z" />
<glyph unicode="&#xe905;" glyph-name="fb" horiz-adv-x="602" d="M346.353 673.882c0 19.969 7.938 39.115 22.059 53.235s33.266 22.059 53.235 22.059h105.412v120.471h-105.412c-51.92 0-101.699-20.64-138.412-57.353s-57.353-86.492-57.353-138.412v-135.529c0-16.633-13.484-30.118-30.118-30.118h-105.412v-120.471h105.412c16.633 0 30.118-13.484 30.118-30.118v-331.294h120.471v331.294c0 16.633 13.484 30.118 30.118 30.118h112l30.118 120.471h-142.118c-16.633 0-30.118 13.484-30.118 30.118v135.529zM406.588 568.471h150.588c9.274 0 18.057-4.278 23.765-11.588 5.695-7.304 7.713-16.837 5.471-25.823l-45.176-180.706c-3.351-13.408-15.415-22.823-29.235-22.823h-105.412v-331.294c0-16.631-13.484-30.118-30.118-30.118h-180.706c-16.633 0-30.118 13.487-30.118 30.118v331.294h-105.412c-16.633 0-30.118 13.487-30.118 30.118v180.706c0 16.633 13.484 30.118 30.118 30.118h105.412v105.412c0 67.895 26.991 132.99 75 181s113.104 75 181 75h135.529c16.633 0 30.118-13.484 30.118-30.118v-180.706c0-16.633-13.484-30.118-30.118-30.118h-135.529c-3.994 0-7.823-1.588-10.647-4.412s-4.412-6.654-4.412-10.647v-105.412z" />
<glyph unicode="&#xe906;" d="M1024 448c0-282.772-229.228-512-512-512-282.77 0-512 229.228-512 512 0 282.77 229.23 512 512 512 282.772 0 512-229.23 512-512z" />
<glyph unicode="&#xe907;" d="M444.995 241.914c-5.348-5.444-12.645-8.556-20.277-8.556-7.629 0.006-14.932 3.112-20.278 8.556l20.278 19.888 20.277-19.888zM724.44 607.581c11.008 11.199 29.019 11.338 40.22 0.333 11.201-11.009 11.338-29.017 0.336-40.222l-320.002-325.778-20.277 19.945-20.278-19.945-145.444 148.053c-11.002 11.205-10.858 29.215 0.333 40.224 11.204 11.003 29.214 10.862 40.222-0.333l125.167-127.443 299.723 305.165z" />
<glyph unicode="&#xe908;" glyph-name="search" d="M820.446 498.555c0 198.284-160.717 359.049-359.001 359.056-198.288 0-359.056-160.768-359.056-359.056 0.007-198.285 160.772-359.001 359.056-359.001 198.279 0.006 358.996 160.722 359.001 359.001zM911.502 498.555c-0.011-248.546-201.512-450.046-450.058-450.058-248.554 0-450.049 201.506-450.056 450.058 0 248.558 201.497 450.056 450.056 450.056 248.552-0.007 450.058-201.501 450.058-450.056zM714.974 245.032c17.772 17.772 46.558 17.772 64.336 0l219.995-219.944c17.772-17.772 17.778-46.615 0-64.393-17.772-17.772-46.615-17.766-64.387 0l-219.944 220.001c-17.772 17.772-17.772 46.564 0 64.336z" />
<glyph unicode="&#xe909;" d="M1024 448c0-282.77-229.23-512-512-512s-512 229.23-512 512c0 282.77 229.23 512 512 512s512-229.23 512-512z" />
<glyph unicode="&#xe90a;" d="M510.683 433.014c-140.651 0-218.112-66.54-218.112-187.36 0-9.435 7.648-17.086 17.083-17.086h402.055c9.438 0 17.086 7.651 17.086 17.086 0 120.814-77.461 187.36-218.112 187.36zM327.361 262.738c6.72 90.337 68.31 136.107 183.322 136.107s176.602-45.77 183.328-136.107h-366.651z" />
<glyph unicode="&#xe90b;" d="M510.683 696.686c-64.609 0-113.328-49.699-113.328-115.601 0-67.83 50.84-123.006 113.328-123.006 62.49 0 113.328 55.176 113.328 123.003 0 65.905-48.719 115.604-113.328 115.604zM510.683 492.243c-43.652 0-79.158 39.851-79.158 88.839 0 47.186 33.292 81.434 79.158 81.434 45.132 0 79.158-35.006 79.158-81.434 0-48.988-35.506-88.839-79.158-88.839z" />
<glyph unicode="&#xe90c;" horiz-adv-x="1178" d="M348.605 62.715c-0.154-0.072-0.277-0.128-0.35-0.205-0.073-0.072-0.132-0.195-0.2-0.348-0.081-0.195-0.15-0.41-0.15-0.502l0.15-0.445c0.067-0.159 0.127-0.276 0.2-0.353 0.075-0.072 0.191-0.179 0.35-0.251 0.193-0.082 0.41-0.097 0.5-0.097 0.093 0 0.268 0.020 0.45 0.097 0.167 0.072 0.272 0.174 0.35 0.251s0.179 0.184 0.25 0.353l0.1 0.445-0.1 0.502c-0.069 0.159-0.175 0.276-0.25 0.348-0.076 0.077-0.195 0.138-0.35 0.205l-0.45 0.148c-0.090 0-0.307-0.072-0.5-0.148zM424.705 61.66c-0.007-41.759-33.838-75.592-75.6-75.597-39.169 0-71.385 29.752-75.25 67.901l-0.4 7.695 0.4 7.752c3.875 38.139 36.089 67.901 75.25 67.901l7.7-0.399c38.149-3.866 67.9-36.081 67.9-75.254z" />
<glyph unicode="&#xe90d;" horiz-adv-x="1178" d="M758.205 62.715c-0.154-0.072-0.276-0.128-0.353-0.205-0.072-0.072-0.128-0.195-0.2-0.348-0.077-0.195-0.148-0.41-0.148-0.502l0.148-0.445c0.067-0.159 0.128-0.276 0.2-0.353 0.077-0.072 0.195-0.179 0.353-0.251 0.189-0.082 0.41-0.097 0.502-0.097s0.266 0.020 0.445 0.097c0.169 0.072 0.276 0.174 0.353 0.251s0.179 0.184 0.251 0.353l0.097 0.445-0.097 0.502c-0.072 0.159-0.179 0.276-0.251 0.348-0.077 0.077-0.195 0.138-0.353 0.205l-0.445 0.148c-0.092 0-0.312-0.072-0.502-0.148zM834.304 61.66c-0.005-41.759-33.838-75.592-75.597-75.597-39.173 0-71.388 29.752-75.254 67.901l-0.399 7.695 0.399 7.752c3.876 38.139 36.091 67.901 75.254 67.901l7.695-0.399c38.149-3.866 67.901-36.081 67.901-75.254z" />
<glyph unicode="&#xe90e;" horiz-adv-x="1178" d="M200.15 844.8l6.7-0.6c15.331-2.711 27.802-14.547 30.95-30.25l31.1-155.35h601.5c11.443 0 22.303-5.082 29.599-13.9s10.245-20.46 8.1-31.7l-59.551-312.4-0.046-0.302-2.35-9.6c-6.446-22.098-19.548-41.764-37.601-56.3-20.444-16.456-45.972-25.231-72.202-24.899v-0.051l-361.948 0.051c-26.224-0.328-51.759 8.443-72.2 24.899-20.625 16.609-34.787 39.931-39.95 65.9v0.051l-62.4 311.7c-0.1 0.462-0.167 0.932-0.25 1.4l-30.95 154.55h-117.45c-21.208 0-38.4 17.192-38.4 38.4s17.192 38.4 38.4 38.4h148.95zM337.6 315.351v-0.051l1.75-6.052c2.274-5.852 6.050-11.064 11-15.048 6.595-5.309 14.886-8.11 23.35-7.951h363.401c8.458-0.159 16.707 2.647 23.301 7.951 6.595 5.309 11.1 12.795 12.749 21.1l50.852 266.5h-539.752l53.35-266.449z" />
<glyph unicode="&#xe90f;" horiz-adv-x="1178" d="M1177.6 652.8c0-169.662-137.539-307.2-307.2-307.2s-307.2 137.538-307.2 307.2c0 169.662 137.539 307.2 307.2 307.2s307.2-137.538 307.2-307.2z" />
<glyph unicode="&#xe910;" horiz-adv-x="1178" d="M980.48 591.366c0-27.307-9.559-50.006-28.672-68.096s-46.080-27.136-80.896-27.136c-32.087 0-59.904 5.632-83.456 16.896v40.448c25.257-13.312 52.736-19.968 82.432-19.968 21.847 0 38.743 5.632 50.688 16.896 12.288 11.264 18.432 25.941 18.432 44.032s-6.825 31.914-20.48 41.472c-13.312 9.898-32.599 14.848-57.856 14.848h-21.504v35.328h21.504c19.113 0 35.159 5.29 48.128 15.872 13.312 10.922 19.968 25.429 19.968 43.52s-5.632 31.744-16.896 40.96c-11.264 9.216-26.793 13.824-46.592 13.824-23.552 0-46.080-6.998-67.584-20.992v39.424c19.799 12.629 42.665 18.944 68.608 18.944 33.111 0 58.711-8.534 76.8-25.6 18.432-16.726 27.648-37.547 27.648-62.464 0-18.091-4.608-34.304-13.824-48.64-8.873-14.336-22.185-25.088-39.936-32.256 19.456-4.438 34.816-13.483 46.080-27.136 11.607-13.312 17.408-30.038 17.408-50.176z" />
<glyph unicode="&#xe911;" glyph-name="cart0" horiz-adv-x="1117" d="M232.727 960c22.184 0 41.282-15.657 45.636-37.409l39.091-195.318h753.091c13.871 0 27.020-6.179 35.863-16.863 8.844-10.688 12.46-24.783 9.863-38.409l-74.501-390.498-0.042-0.368c-6.386-32.14-23.887-60.993-49.413-81.543-25.288-20.359-56.869-31.227-89.316-30.818l-452.455-0.047c-32.448-0.41-64.026 10.501-89.318 30.864-25.514 20.541-43.016 49.375-49.409 81.501l-78 389.726c-0.095 0.438-0.19 0.876-0.273 1.318l-38.955 194.773h-148.045c-25.706 0-46.545 20.839-46.545 46.545s20.839 46.545 46.545 46.545h186.182zM403.091 299.362l0.045-0.088c2.129-10.71 7.948-20.336 16.455-27.183 8.509-6.851 19.169-10.482 30.091-10.273h454.18c10.924-0.209 21.583 3.421 30.092 10.273 7.447 5.995 12.847 14.113 15.5 23.226l0.954 3.956 63.865 334.909h-678.181l67-334.82zM325.818 29.091c0 51.414 41.678 93.091 93.091 93.091s93.091-41.677 93.091-93.091-41.677-93.091-93.091-93.091c-51.413 0-93.091 41.677-93.091 93.091zM837.818 29.091c0 51.414 41.677 93.091 93.091 93.091s93.091-41.677 93.091-93.091c0-51.414-41.677-93.091-93.091-93.091s-93.091 41.677-93.091 93.091z" />
<glyph unicode="&#xe912;" glyph-name="star" horiz-adv-x="1109" d="M528.254 960l163.23-330.687 365.028-53.354-264.131-257.26 62.334-363.44-326.461 171.684-326.461-171.684 62.334 363.44-264.127 257.26 365.024 53.354 163.231 330.687z" />
<glyph unicode="&#xe913;" glyph-name="plus" d="M819.2 499.2c0 197.939-160.461 358.4-358.4 358.4s-358.4-160.461-358.4-358.4c0-197.939 160.461-358.4 358.4-358.4s358.4 160.461 358.4 358.4zM921.6 499.2c0-254.495-206.305-460.8-460.8-460.8-254.493 0-460.8 206.305-460.8 460.8 0 254.493 206.307 460.8 460.8 460.8 254.495 0 460.8-206.307 460.8-460.8zM713.882 246.124c19.994 19.999 52.403 19.999 72.397 0l222.705-222.7c19.994-19.994 19.994-52.403 0-72.397-19.999-19.999-52.408-19.999-72.402 0l-222.7 222.7c-19.994 19.994-19.994 52.403 0 72.397zM409.6 345.6v307.2c0 28.277 22.923 51.2 51.2 51.2s51.2-22.923 51.2-51.2v-307.2c0-28.278-22.923-51.2-51.2-51.2s-51.2 22.922-51.2 51.2zM614.4 550.4c28.278 0 51.2-22.923 51.2-51.2s-22.922-51.2-51.2-51.2h-307.2c-28.277 0-51.2 22.923-51.2 51.2s22.923 51.2 51.2 51.2h307.2z" />
<glyph unicode="&#xe914;" glyph-name="arrow" horiz-adv-x="853" d="M609.835 947.501c16.661 16.662 43.669 16.662 60.331 0l170.667-170.666c16.666-16.663 16.666-43.671 0-60.334l-170.667-170.667c-16.661-16.66-43.669-16.66-60.331 0-16.666 16.663-16.666 43.671 0 60.334l140.497 140.5-140.497 140.5c-16.666 16.663-16.666 43.671 0 60.333zM0 490.667v85.333c0 56.579 22.492 110.825 62.5 150.833s94.254 62.5 150.833 62.5h597.333c23.565 0 42.667-19.103 42.667-42.667s-19.102-42.667-42.667-42.667h-597.333c-33.948 0-66.495-13.495-90.5-37.5s-37.5-56.552-37.5-90.5v-85.333c0-23.565-19.103-42.667-42.667-42.667s-42.667 19.102-42.667 42.667zM183.166 350.165c16.663 16.666 43.671 16.666 60.334 0 16.662-16.661 16.662-43.669 0-60.331l-140.5-140.501 140.5-140.501c16.662-16.661 16.662-43.669 0-60.331s-43.671-16.661-60.334 0l-170.666 170.667c-16.662 16.661-16.662 43.669 0 60.331l170.666 170.667zM768 320v85.333c0 23.565 19.102 42.667 42.667 42.667s42.667-19.102 42.667-42.667v-85.333c0-56.58-22.494-110.827-62.498-150.835-40.009-40.004-94.255-62.498-150.835-62.498h-597.333c-23.564 0-42.667 19.102-42.667 42.667s19.103 42.667 42.667 42.667h597.333c33.946 0 66.496 13.495 90.5 37.5s37.5 56.555 37.5 90.5z" />
<glyph unicode="&#xe915;" glyph-name="heart" horiz-adv-x="1122" d="M1019.285 642.953c0 28.823-5.681 57.372-16.716 84-11.030 26.629-27.229 50.813-47.616 71.19-20.373 20.38-44.568 36.588-71.192 47.619-26.629 11.033-55.174 16.714-83.997 16.714-28.828 0-57.373-5.681-84.002-16.714-26.624-11.031-50.815-27.192-71.188-47.572l-51.717-51.714c-19.042-19.039-49.913-19.041-68.954 0l-51.665 51.667c-41.163 41.163-97.025 64.286-155.238 64.286-58.208-0.004-114.032-23.126-155.191-64.286-41.156-41.161-64.286-96.983-64.286-155.19 0.001-58.209 23.127-114.030 64.286-155.191l396.573-396.572 404.046 404.382c16.901 18.644 30.491 40.083 40.141 63.381 11.035 26.627 16.716 55.178 16.716 84zM1116.809 642.953c0-41.633-8.207-82.871-24.142-121.333-13.946-33.65-33.587-64.593-57.997-91.525l-10.767-11.284-431.045-431.050c-19.042-19.042-49.908-19.042-68.954 0l-431.045 431.050c-59.448 59.449-92.856 140.068-92.857 224.141 0 84.078 33.405 164.738 92.857 224.19 59.447 59.44 140.077 92.806 224.143 92.81 84.075 0 164.739-33.36 224.189-92.81l17.193-17.191 17.189 17.191c29.433 29.443 64.4 52.778 102.858 68.714 38.463 15.938 79.696 24.143 121.334 24.143 41.633 0 82.871-8.206 121.329-24.143 38.449-15.933 73.387-39.282 102.81-68.714l10.767-11.285c24.42-26.936 44.052-57.911 57.997-91.571 15.935-38.463 24.142-79.699 24.142-121.333z" />
</font>
</defs>
</svg>
