<svg width="17" height="17" viewBox="0 0 17 17" fill="none" xmlns="http://www.w3.org/2000/svg">
<path d="M15.75 4.75C15.75 2.95507 14.2949 1.5 12.5 1.5H5C3.20507 1.5 1.75 2.95507 1.75 4.75V12.25C1.75 14.0449 3.20507 15.5 5 15.5H12.5C14.2949 15.5 15.75 14.0449 15.75 12.25V4.75ZM16.75 12.25C16.75 14.5972 14.8472 16.5 12.5 16.5H5C2.65279 16.5 0.75 14.5972 0.75 12.25V4.75C0.75 2.40279 2.65279 0.5 5 0.5H12.5C14.8472 0.5 16.75 2.40279 16.75 4.75V12.25Z" fill="white"/>
<path d="M7.17016 5.36086C7.82361 5.0218 8.56792 4.8974 9.29613 5.00539C10.0388 5.11559 10.7262 5.46178 11.2571 5.99269C11.788 6.52361 12.1342 7.21094 12.2444 7.95363C12.3524 8.68185 12.228 9.42616 11.8889 10.0796C11.5498 10.7329 11.0132 11.2624 10.3557 11.5933C9.69824 11.9242 8.95349 12.0393 8.2268 11.9224C7.49997 11.8054 6.82841 11.4625 6.30785 10.9419C5.7873 10.4214 5.44434 9.7498 5.32738 9.02297C5.21051 8.29628 5.3256 7.55152 5.65649 6.89406C5.98741 6.2366 6.51687 5.69993 7.17016 5.36086ZM9.14965 5.99465C8.6295 5.91752 8.09784 6.00637 7.63109 6.24855C7.16438 6.49074 6.78546 6.87361 6.54906 7.34328C6.31268 7.81296 6.23115 8.34563 6.31469 8.86476C6.39828 9.38379 6.64314 9.86314 7.01488 10.2349C7.38663 10.6066 7.86598 10.8515 8.385 10.9351C8.90413 11.0186 9.43681 10.9371 9.90649 10.7007C10.3762 10.4643 10.759 10.0854 11.0012 9.61867C11.2434 9.15192 11.3323 8.62027 11.2551 8.10012C11.1764 7.56974 10.9292 7.07888 10.55 6.69973C10.1709 6.32057 9.68003 6.07341 9.14965 5.99465Z" fill="white"/>
<path d="M12.8828 3.875C13.1588 3.87517 13.3828 4.09896 13.3828 4.375C13.3828 4.65104 13.1588 4.87483 12.8828 4.875H12.875C12.5989 4.875 12.375 4.65114 12.375 4.375C12.375 4.09886 12.5989 3.875 12.875 3.875H12.8828Z" fill="white"/>
</svg>
