<svg width="14" height="15" viewBox="0 0 14 15" fill="none" xmlns="http://www.w3.org/2000/svg">
<path d="M12.5391 7.5C12.5391 4.14949 10.0322 1.5001 7.01953 1.5C4.00674 1.5 1.5 4.14943 1.5 7.5C1.5 10.8506 4.00674 13.5 7.01953 13.5C10.0322 13.4999 12.5391 10.8505 12.5391 7.5ZM13.5391 7.5C13.5391 11.3291 10.6555 14.4999 7.01953 14.5C3.38351 14.5 0.5 11.3291 0.5 7.5C0.5 3.67087 3.38351 0.5 7.01953 0.5C10.6555 0.500096 13.5391 3.67093 13.5391 7.5Z" fill="white"/>
<path d="M13.0391 7C13.3151 7.00018 13.5391 7.22397 13.5391 7.5C13.5391 7.77603 13.3151 7.99982 13.0391 8H1C0.723858 8 0.5 7.77614 0.5 7.5C0.5 7.22386 0.723858 7 1 7H13.0391Z" fill="white"/>
<path d="M7.40067 0.676758C8.98316 2.54758 9.87838 4.96944 9.92703 7.49023C9.92716 7.49666 9.92716 7.50334 9.92703 7.50977C9.87837 10.0306 8.98316 12.4524 7.40067 14.3232L7.32254 14.3984C7.2364 14.464 7.13 14.4999 7.01981 14.5C6.87287 14.5 6.73297 14.4353 6.63797 14.3232L7.01981 14H7.01883L6.63797 14.3232C5.05547 12.4524 4.16026 10.0306 4.1116 7.50977C4.11148 7.50334 4.11148 7.49666 4.1116 7.49023C4.16026 4.96944 5.05547 2.54758 6.63797 0.676758L7.01883 1L7.40067 0.676758ZM7.01981 1.80957C5.83081 3.42154 5.15373 5.41825 5.1116 7.5C5.15372 9.58148 5.8311 11.5776 7.01981 13.1895C8.20831 11.5777 8.88394 9.58128 8.92606 7.5C8.88394 5.41844 8.2086 3.42146 7.01981 1.80957Z" fill="white"/>
</svg>
