<svg width="17" height="16" viewBox="0 0 17 16" fill="none" xmlns="http://www.w3.org/2000/svg">
<path d="M15.1409 10C15.1409 8.93913 14.7191 7.92202 13.969 7.17188C13.2188 6.42173 12.2017 6 11.1409 6C10.08 6 9.06289 6.42173 8.31274 7.17188C7.5626 7.92202 7.14087 8.93913 7.14087 10V14.75H9.14087V10C9.14087 9.46957 9.35173 8.96101 9.72681 8.58594C10.1019 8.21087 10.6104 8 11.1409 8C11.6713 8 12.1799 8.21087 12.5549 8.58594C12.93 8.96101 13.1409 9.46957 13.1409 10V14.75H15.1409V10ZM16.1409 15.25C16.1409 15.5261 15.917 15.75 15.6409 15.75H12.6409C12.3647 15.75 12.1409 15.5261 12.1409 15.25V10C12.1409 9.73478 12.0354 9.48051 11.8479 9.29297C11.6604 9.10543 11.4061 9 11.1409 9C10.8757 9 10.6214 9.10543 10.4338 9.29297C10.2463 9.48051 10.1409 9.73478 10.1409 10V15.25C10.1409 15.5261 9.91701 15.75 9.64087 15.75H6.64087C6.36473 15.75 6.14087 15.5261 6.14087 15.25V10C6.14087 8.67392 6.66803 7.40253 7.60571 6.46484C8.54339 5.52716 9.81479 5 11.1409 5C12.467 5 13.7383 5.52716 14.676 6.46484C15.6137 7.40253 16.1409 8.67392 16.1409 10V15.25Z" fill="white"/>
<path d="M3.64087 5.75C3.91701 5.75 4.14087 5.97386 4.14087 6.25V15.25C4.14087 15.5261 3.91701 15.75 3.64087 15.75H0.640869C0.364727 15.75 0.140869 15.5261 0.140869 15.25V6.25L0.150635 6.14941C0.197161 5.92145 0.399156 5.75 0.640869 5.75H3.64087ZM1.14087 14.75H3.14087V6.75H1.14087V14.75Z" fill="white"/>
<path d="M3.14087 2.5C3.14087 1.94772 2.69315 1.5 2.14087 1.5C1.58858 1.5 1.14087 1.94772 1.14087 2.5C1.14087 3.05228 1.58858 3.5 2.14087 3.5C2.69315 3.5 3.14087 3.05228 3.14087 2.5ZM4.14087 2.5C4.14087 3.60457 3.24544 4.5 2.14087 4.5C1.0363 4.5 0.140869 3.60457 0.140869 2.5C0.140869 1.39543 1.0363 0.5 2.14087 0.5C3.24544 0.5 4.14087 1.39543 4.14087 2.5Z" fill="white"/>
</svg>
