<svg width="20" height="20" viewBox="0 0 20 20" fill="none" xmlns="http://www.w3.org/2000/svg">
<path d="M16 9C16 5.13401 12.866 2 9 2C5.13401 2 2 5.13401 2 9C2 12.866 5.13401 16 9 16C12.866 16 16 12.866 16 9ZM18 9C18 13.9706 13.9706 18 9 18C4.02944 18 0 13.9706 0 9C0 4.02944 4.02944 0 9 0C13.9706 0 18 4.02944 18 9Z" fill="#030D15"/>
<path d="M13.943 13.9429C14.3335 13.5523 14.9665 13.5523 15.357 13.9429L19.7067 18.2925C20.0972 18.683 20.0972 19.316 19.7067 19.7065C19.3161 20.0971 18.6831 20.0971 18.2926 19.7065L13.943 15.3569C13.5525 14.9664 13.5525 14.3334 13.943 13.9429Z" fill="#030D15"/>
<path d="M8 12V6C8 5.44772 8.44772 5 9 5C9.55228 5 10 5.44772 10 6V12C10 12.5523 9.55228 13 9 13C8.44772 13 8 12.5523 8 12Z" fill="#030D15"/>
<path d="M12 8C12.5523 8 13 8.44772 13 9C13 9.55228 12.5523 10 12 10H6C5.44772 10 5 9.55228 5 9C5 8.44772 5.44772 8 6 8H12Z" fill="#030D15"/>
</svg>
