<svg width="18" height="18" viewBox="0 0 18 18" fill="none" xmlns="http://www.w3.org/2000/svg">
<path d="M14.4219 8.11133C14.4219 4.62587 11.5968 1.79992 8.11133 1.7998C4.6258 1.7998 1.7998 4.6258 1.7998 8.11133C1.79992 11.5968 4.62587 14.4219 8.11133 14.4219C11.5967 14.4218 14.4218 11.5967 14.4219 8.11133ZM16.0225 8.11133C16.0223 12.4803 12.4803 16.0223 8.11133 16.0225C3.74221 16.0225 0.200311 12.4804 0.200195 8.11133C0.200195 3.74214 3.74214 0.200195 8.11133 0.200195C12.4804 0.200311 16.0225 3.74221 16.0225 8.11133Z" fill="#030D15"/>
<path d="M12.5679 12.5678C12.8803 12.2554 13.3863 12.2554 13.6988 12.5678L17.5659 16.434C17.8783 16.7464 17.8784 17.2534 17.5659 17.5659C17.2535 17.8783 16.7465 17.8782 16.4341 17.5659L12.5679 13.6987C12.2555 13.3863 12.2555 12.8802 12.5679 12.5678Z" fill="#030D15"/>
</svg>
