<svg width="21" height="17" viewBox="0 0 21 17" fill="none" xmlns="http://www.w3.org/2000/svg">
<path d="M12.6768 0.779186C13.4892 0.469165 14.3772 0.415778 15.2207 0.626842C15.9551 0.81063 16.6245 1.18744 17.1621 1.71473C17.9413 1.44965 18.6791 1.07452 19.3526 0.599498L19.6397 1.0077L20.127 1.12684C19.8419 2.29735 19.2573 3.37187 18.4336 4.24696C18.4555 4.41991 18.4682 4.59395 18.4688 4.76844L17.8018 4.7704H17.9688L18.4688 4.76844V4.7704C18.4687 9.75174 16.0767 13.3748 12.666 15.1903C9.37346 16.9428 5.17869 16.9863 1.37403 15.0175L1.00685 14.8202L0.936535 14.7724C0.783057 14.6487 0.714084 14.4438 0.768566 14.2489C0.831059 14.0261 1.03832 13.8746 1.26954 13.8837C2.94555 13.9503 4.60141 13.5571 6.06349 12.7577C4.56499 11.947 3.53539 10.9482 2.85255 9.87001C2.05161 8.6053 1.74669 7.26238 1.69142 6.04676C1.63626 4.83338 1.829 3.73686 2.03321 2.94715C2.13563 2.55113 2.24101 2.22858 2.32228 2.0038C2.36288 1.89148 2.39801 1.80344 2.42286 1.74208C2.4353 1.71138 2.44498 1.6867 2.45216 1.66981C2.45569 1.66151 2.45886 1.65508 2.46095 1.65028L2.46485 1.64247V1.64149H2.46583C2.47254 1.62641 2.47903 1.6111 2.48732 1.59657L2.92091 1.84364L3.33107 1.55653C4.12823 2.69165 5.19366 3.61258 6.43263 4.23622C7.52632 4.78671 8.72542 5.08974 9.94532 5.1288V4.79481C9.93514 3.92771 10.1906 3.07779 10.6777 2.36024C11.1662 1.64085 11.8644 1.08925 12.6768 0.779186ZM10.458 6.13075C8.90665 6.17091 7.36961 5.82652 5.98341 5.1288C4.8785 4.57265 3.89735 3.80544 3.09278 2.87391C3.06326 2.97432 3.03081 3.08185 3.00099 3.19715C2.8134 3.9225 2.6402 4.91567 2.68946 6.00087C2.7387 7.08405 3.00926 8.24949 3.69728 9.33583C4.3833 10.4188 5.50402 11.4545 7.3047 12.2548C7.47052 12.3285 7.5834 12.4862 7.59962 12.6669C7.61575 12.8475 7.53277 13.0229 7.38282 13.1249L7.03907 13.3485C5.88227 14.0679 4.59804 14.5457 3.26368 14.7606C6.37834 15.9125 9.61135 15.6834 12.1963 14.3075C15.2634 12.6748 17.4683 9.4022 17.4688 4.77137L17.4541 4.46962C17.4444 4.36922 17.4301 4.26899 17.4111 4.16981C17.3799 4.0061 17.4322 3.83771 17.5508 3.72059L17.835 3.41981C18.1727 3.03696 18.456 2.61178 18.6846 2.15809C18.1951 2.40274 17.6859 2.60819 17.1602 2.76649C16.9954 2.81605 16.8185 2.77677 16.6904 2.66688L16.6387 2.61512L16.4688 2.43446C16.0567 2.02807 15.5419 1.73778 14.9776 1.59657C14.3329 1.43534 13.6541 1.47588 13.0332 1.71278C12.4122 1.94983 11.8783 2.37274 11.5049 2.92274C11.1318 3.47252 10.9365 4.12362 10.9453 4.78797V5.63075C10.9453 5.90184 10.729 6.12372 10.458 6.13075Z" fill="white"/>
</svg>
