<svg width="20" height="15" viewBox="0 0 20 15" fill="none" xmlns="http://www.w3.org/2000/svg">
<path d="M9.70531 0.5C9.74723 0.500085 9.80919 0.500639 9.88792 0.500977C10.0453 0.501651 10.2715 0.503167 10.5471 0.505859C11.0987 0.511247 11.8495 0.521391 12.6448 0.542969C13.4393 0.564525 14.282 0.59755 15.0168 0.646484C15.7386 0.694549 16.3954 0.759883 16.7952 0.857422L16.675 1.34668L16.677 1.34375L16.7952 0.857422C16.8009 0.858831 16.807 0.860691 16.8127 0.862305C17.2825 0.995222 17.7091 1.25012 18.0491 1.60059C18.389 1.95103 18.6307 2.3848 18.7493 2.8584L18.2639 2.97949L18.7561 2.8916C19.0208 4.35905 19.1499 5.84778 19.1409 7.33887L19.136 7.88965C19.1113 9.17571 18.9844 10.4581 18.7561 11.7246C18.7541 11.7354 18.7519 11.7462 18.7493 11.7568C18.6307 12.2305 18.389 12.6652 18.0491 13.0156C17.7091 13.366 17.2824 13.62 16.8127 13.7529L16.8059 13.7549L16.6428 13.7939C16.2361 13.8809 15.6512 13.9422 15.0198 13.9883C14.2841 14.0419 13.4404 14.0779 12.6457 14.1016C11.8504 14.1252 11.0997 14.1367 10.5481 14.1426C10.2722 14.1455 10.0454 14.1467 9.88792 14.1475C9.80916 14.1478 9.74726 14.1483 9.70531 14.1484H9.5764C9.53444 14.1483 9.47255 14.1478 9.39378 14.1475C9.23626 14.1467 9.00953 14.1455 8.73363 14.1426C8.18199 14.1367 7.43134 14.1252 6.63597 14.1016C5.84126 14.0779 4.99763 14.0419 4.26195 13.9883C3.63047 13.9422 3.04557 13.8809 2.6389 13.7939L2.47581 13.7549L2.47289 13.7539L2.60472 13.2725L2.60765 13.2598L2.47289 13.7539C2.01268 13.628 1.59228 13.3854 1.25316 13.0498C0.956473 12.7561 0.730417 12.3998 0.591049 12.0078L0.536362 11.8379L0.52562 11.79C0.260637 10.321 0.131509 8.8306 0.140854 7.33789C0.133856 5.85791 0.262959 4.38034 0.52562 2.92383L0.532455 2.8916C0.651006 2.41796 0.892703 1.98327 1.23265 1.63281C1.57256 1.28246 1.99927 1.0284 2.46898 0.895508L2.47581 0.893555L2.6389 0.854492C3.04557 0.767577 3.63047 0.706215 4.26195 0.660156C4.99763 0.606506 5.84126 0.57049 6.63597 0.546875C7.43134 0.523242 8.18199 0.511762 8.73363 0.505859C9.00953 0.502908 9.23626 0.501716 9.39378 0.500977C9.47255 0.500607 9.53444 0.500093 9.5764 0.5H9.70531ZM9.57835 1.5C9.53719 1.50009 9.47649 1.50061 9.39867 1.50098C9.24287 1.50171 9.01809 1.50293 8.74437 1.50586C8.19677 1.51172 7.45254 1.52348 6.66527 1.54688C5.87707 1.5703 5.04956 1.60505 4.33421 1.65723C3.60788 1.71021 3.0385 1.77763 2.73753 1.85742C2.4384 1.94265 2.16705 2.10585 1.95042 2.3291C1.73611 2.55005 1.58304 2.82321 1.50609 3.12109C1.25638 4.51264 1.13388 5.92411 1.14085 7.33789L0.595932 7.33984L1.14085 7.34375C1.13193 8.76503 1.25461 10.184 1.50511 11.583C1.59003 11.869 1.74504 12.1298 1.95726 12.3398C2.17334 12.5536 2.44066 12.7083 2.73363 12.7891L3.00804 12.8467C3.32934 12.9023 3.78716 12.9513 4.33421 12.9912C5.04956 13.0434 5.87707 13.0781 6.66527 13.1016C7.45254 13.125 8.19677 13.1367 8.74437 13.1426C9.01809 13.1455 9.24287 13.1467 9.39867 13.1475C9.47649 13.1478 9.53719 13.1483 9.57835 13.1484H9.70335C9.74452 13.1483 9.80522 13.1478 9.88304 13.1475C10.0388 13.1467 10.2636 13.1455 10.5373 13.1426C11.0849 13.1367 11.8292 13.125 12.6164 13.1016C13.4046 13.0781 14.2321 13.0434 14.9475 12.9912C15.6733 12.9383 16.2421 12.8698 16.5432 12.79C16.8426 12.7049 17.1145 12.5428 17.3313 12.3193C17.5455 12.0985 17.6977 11.8251 17.7746 11.5273C18.0224 10.1463 18.1459 8.74585 18.1409 7.34277V7.33789L18.1379 6.80078C18.117 5.55631 17.9946 4.31547 17.7746 3.08984C17.6978 2.79155 17.5458 2.51809 17.3313 2.29688C17.1147 2.07362 16.8432 1.91146 16.5442 1.82617C16.2368 1.75343 15.6686 1.69138 14.9504 1.64355C14.2342 1.59586 13.4059 1.56436 12.6174 1.54297C11.8297 1.5216 11.0851 1.51023 10.5373 1.50488C10.2636 1.50221 10.0389 1.50164 9.88304 1.50098C9.80525 1.50064 9.74452 1.50008 9.70335 1.5H9.57835ZM1.14183 7.34375L0.640854 7.34082L1.14085 7.33789L1.14183 7.34375Z" fill="white"/>
<path d="M7.54907 4.23244C7.70287 4.14321 7.89252 4.14259 8.04712 4.23049L12.7512 6.90529C12.9075 6.99417 13.0042 7.16104 13.0042 7.34084C13.004 7.52046 12.9074 7.6866 12.7512 7.77541L8.04712 10.4502C7.89251 10.5381 7.70288 10.5375 7.54907 10.4483C7.39517 10.3587 7.30005 10.1937 7.30005 10.0156V4.66506C7.30005 4.487 7.39517 4.32197 7.54907 4.23244ZM8.30005 9.15529L11.4915 7.33986L8.30005 5.52443V9.15529Z" fill="white"/>
</svg>
